<mxfile host="app.diagrams.net" modified="2020-09-07T12:15:42.088Z" agent="5.0 (X11; Linux x86_64) AppleWebKit/537.36 (KHTML, like Gecko) Chrome/85.0.4183.83 Safari/537.36" etag="95FRdItponz3K_Kuthg1" version="13.6.6" type="github">
  <diagram id="KAdQ4zuXOhQmlQB0jqn_" name="Page-1">
    <mxGraphModel dx="1422" dy="738" grid="1" gridSize="10" guides="1" tooltips="1" connect="1" arrows="1" fold="1" page="1" pageScale="1" pageWidth="827" pageHeight="1169" math="0" shadow="0">
      <root>
        <mxCell id="0" />
        <mxCell id="1" parent="0" />
        <mxCell id="qkEaT89xuoA2V17u_yvj-1" value="&lt;b style=&quot;font-size: 230px;&quot;&gt;&lt;font color=&quot;#ffffff&quot; style=&quot;font-size: 230px;&quot;&gt;N&lt;/font&gt;&lt;/b&gt;" style="ellipse;whiteSpace=wrap;html=1;aspect=fixed;strokeColor=none;fillColor=#007FFF;fontSize=230;fontStyle=2;verticalAlign=middle;align=center;" parent="1" vertex="1">
          <mxGeometry x="60" y="40" width="300" height="300" as="geometry" />
        </mxCell>
        <mxCell id="WJQeXLOzecwXVlfChh9k-1" value="&lt;b style=&quot;font-size: 115px;&quot;&gt;&lt;font color=&quot;#ffffff&quot; style=&quot;font-size: 115px;&quot;&gt;N&lt;/font&gt;&lt;/b&gt;" style="ellipse;whiteSpace=wrap;html=1;aspect=fixed;strokeColor=none;fillColor=#007FFF;fontSize=115;fontStyle=2;verticalAlign=middle;align=center;" parent="1" vertex="1">
          <mxGeometry x="440" y="120" width="150" height="150" as="geometry" />
        </mxCell>
        <mxCell id="p7iKvDvBNddSpFgeZmka-1" value="&lt;b style=&quot;font-size: 30px;&quot;&gt;&lt;font color=&quot;#ffffff&quot; style=&quot;font-size: 30px;&quot;&gt;N&lt;/font&gt;&lt;/b&gt;" style="ellipse;whiteSpace=wrap;html=1;aspect=fixed;strokeColor=none;fillColor=#007FFF;fontSize=30;fontStyle=2;verticalAlign=middle;align=center;" parent="1" vertex="1">
          <mxGeometry x="360" y="360" width="40" height="40" as="geometry" />
        </mxCell>
      </root>
    </mxGraphModel>
  </diagram>
</mxfile>
